<svg xmlns="http://www.w3.org/2000/svg" viewBox="0 0 429.43 404.41"><defs><linearGradient id="acd7aaa38-f09a-4a28-a9c5-fe71463c59a2" x1="259.03" y1="304.96" x2="429.43" y2="304.96" gradientUnits="userSpaceOnUse"><stop offset="0" stop-color="#662d91"/><stop offset="1" stop-color="#92278f"/></linearGradient><linearGradient id="b8df16d5b-0741-46bf-ac05-cc861ae23f0e" x1="186.22" y1="304.96" x2="356.62" y2="304.96" gradientUnits="userSpaceOnUse"><stop offset="0" stop-color="#c2278f"/><stop offset=".96" stop-color="#ef4136"/></linearGradient><linearGradient id="caa0c62a0-28e1-420e-89f9-a757aaf3f708" x1="113.41" y1="304.96" x2="283.81" y2="304.96" gradientUnits="userSpaceOnUse"><stop offset="0" stop-color="#ef4136"/><stop offset="1" stop-color="#f7941e"/></linearGradient></defs><g><g><path fill="#4f4c4d" d="M60.52 198.91L170.41 0h-60.52L0 198.91h60.52zM133.33 198.91L243.22 0H182.7L72.81 198.91h60.52zM206.14 198.91L316.03 0h-60.52L145.62 198.91h60.52z"/><path fill="#808285" d="M368.92 198.91L294.66 64l31.18-57.21 103.59 192.12h-60.51zM296.11 198.91l-38.05-69.57 30.25-53.24 68.31 122.81h-60.51zM223.29 198.91l-1.77-4.18 29.61-54.64 32.68 58.82h-60.52z"/><path fill="url(#acd7aaa38-f09a-4a28-a9c5-fe71463c59a2)" d="M368.92 205.5L259.03 404.41h60.52L429.43 205.5h-60.51z"/><path fill="url(#b8df16d5b-0741-46bf-ac05-cc861ae23f0e)" d="M296.11 205.5L186.22 404.41h60.52L356.62 205.5h-60.51z"/><path fill="url(#caa0c62a0-28e1-420e-89f9-a757aaf3f708)" d="M223.29 205.5L113.41 404.41h60.52L283.81 205.5h-60.52z"/><path fill="#4f4c4d" d="M60.52 205.5l74.26 134.91-31.19 57.21L0 205.5h60.52zM133.33 205.5l38.04 69.57-30.24 53.24L72.81 205.5h60.52zM206.14 205.5l1.77 4.18-29.61 54.64-32.68-58.82h60.52z"/></g></g></svg>